PathFileType	4	(X/Y/Z)	./resultDataOpenSim/trcMotMarkerGrf/sub09/qtm-14-05.trc
DataRate	CameraRate	NumFrames	NumMarkers	Units	OrigDataRate	OrigDataStartFrame	OrigNumFrames
250.000000	250.000000	15	24	m	250.000000	1	485
Frame#	Time	L.Toe.Tip			R.Toe.Tip			L.Ankle.Lat			R.Ankle.Lat			L.Ankle.Med			R.Ankle.Med			L.Heel			R.Heel			L.Knee.Lat			R.Knee.Lat			L.Knee.Med			R.Knee.Med			L.Thigh.Upper			R.Thigh.Upper			L.ASIS			R.ASIS			V.Sacral			L.Acromium			R.Acromium			C7			L.Elbow			R.Elbow			L.Wrist.Lat			R.Wrist.Lat
		X1	Y1	Z1	X2	Y2	Z2	X3	Y3	Z3	X4	Y4	Z4	X5	Y5	Z5	X6	Y6	Z6	X7	Y7	Z7	X8	Y8	Z8	X9	Y9	Z9	X10	Y10	Z10	X11	Y11	Z11	X12	Y12	Z12	X13	Y13	Z13	X14	Y14	Z14	X15	Y15	Z15	X16	Y16	Z16	X17	Y17	Z17	X18	Y18	Z18	X19	Y19	Z19	X20	Y20	Z20	X21	Y21	Z21	X22	Y22	Z22	X23	Y23	Z23	X24	Y24	Z24

1	0	-1.4841551	0.036499779	-0.032786862	-1.0005364	0.068151774	0.11328114	-1.6349498	0.078928143	-0.055842498	-1.1500744	0.069409668	0.13135745	-1.6014506	0.094534758	0.035956866	-1.133245	0.10726874	0.041807999	NaN	NaN	NaN	-1.2044953	0.037551997	0.071627352	-1.4912594	0.4717711	-0.11751647	-1.1603329	0.52526534	0.17836135	-1.4888541	0.47160766	0.0084510617	-1.151362	0.50927368	0.053683507	-1.3826884	0.88075406	-0.16496885	-1.3623195	0.87666937	0.20837781	-1.2790043	0.95150909	-0.10613873	-1.2773951	0.95704983	0.13446635	-1.4405184	1.0210819	0.01851477	-1.2266647	1.4017514	-0.14212798	-1.2751029	1.4156985	0.18343682	-1.3138385	1.465122	0.014529582	-1.3361761	1.0391746	-0.2209898	-1.4621563	1.1072189	0.25843698	-1.0853552	0.92820027	-0.19986799	-1.3940704	0.84629178	0.29636909
2	0.004	-1.484073	0.036489941	-0.032943801	-0.98146148	0.070301104	0.11399909	-1.6347824	0.079689272	-0.055706902	-1.1309509	0.068460873	0.13196643	-1.601897	0.094928708	0.036388023	-1.1149816	0.10668527	0.042433872	NaN	NaN	NaN	-1.184513	0.035709591	0.072301416	-1.4890221	0.47191562	-0.11755157	-1.1534343	0.52443075	0.17872341	-1.4866721	0.47172347	0.0084504326	-1.1442879	0.50814594	0.053906451	-1.3776565	0.87952176	-0.16336998	-1.3566822	0.87505302	0.20858883	-1.2729436	0.95014995	-0.10605116	-1.2712172	0.95558606	0.13471657	-1.4340531	1.0197142	0.018765444	-1.2208188	1.4005636	-0.14176772	-1.2694558	1.4142745	0.18380368	-1.307937	1.4640559	0.016153967	-1.329242	1.0375024	-0.22103085	-1.4567064	1.1059967	0.25792994	-1.0772141	0.92934455	-0.19896688	-1.3903384	0.84494862	0.29685566
3	0.008	-1.4840101	0.03646279	-0.033057511	-0.96229935	0.07268899	0.11478263	-1.6345836	0.080460662	-0.055602515	-1.1119824	0.067653392	0.13256892	-1.6031181	0.09516316	0.037117036	-1.0968443	0.10623828	0.043075008	NaN	NaN	NaN	-1.1647526	0.03411124	0.07294577	-1.4867091	0.47205894	-0.11758953	-1.1469623	0.5233864	0.17899249	-1.4843846	0.47180622	0.0084192616	-1.1372276	0.50697435	0.054100049	-1.3724291	0.87836408	-0.16224582	-1.3509659	0.87345612	0.20881078	-1.2668907	0.94877629	-0.10595785	-1.2650029	0.9541116	0.13497462	-1.4276766	1.0183711	0.019013581	-1.2149511	1.39938	-0.14140849	-1.2638368	1.41286	0.18417243	-1.3019106	1.462935	0.017687303	-1.3222864	1.03582	-0.22100145	-1.4512028	1.104717	0.25739409	-1.0690933	0.9304374	-0.19809264	-1.3865078	0.84360166	0.29733083
4	0.012	-1.4839704	0.036418715	-0.033127299	-0.94322028	0.075408927	0.11561651	-1.6343271	0.081259296	-0.05554496	-1.0932855	0.067061805	0.1331636	-1.6047487	0.095341263	0.037987581	-1.0788827	0.10603797	0.043742262	NaN	NaN	NaN	-1.1454041	0.032884549	0.073443074	-1.4842446	0.47218574	-0.11762076	-1.1408317	0.52211503	0.17917263	-1.4819653	0.47184053	0.0083626207	-1.130183	0.50573319	0.054233009	-1.3669709	0.87728343	-0.16164348	-1.3450636	0.87187651	0.20906116	-1.2608322	0.94737644	-0.10584929	-1.2587203	0.95263078	0.13523776	-1.4214214	1.0170458	0.019259023	-1.2090318	1.3981975	-0.14103904	-1.2582164	1.4114562	0.1845502	-1.2958229	1.4617269	0.018867649	-1.3152851	1.0341293	-0.22084735	-1.4455787	1.1033304	0.25678888	-1.0609981	0.9314544	-0.19724033	-1.3825317	0.84224283	0.29778898
5	0.016	-1.4839427	0.036368831	-0.033179337	-0.92454485	0.078411427	0.11643242	-1.634001	0.08209671	-0.055536598	-1.0749571	0.06670559	0.13376246	-1.6056807	0.09572344	0.038540109	-1.0611702	0.10611565	0.044430087	NaN	NaN	NaN	-1.1266351	0.03201237	0.073618978	-1.4815924	0.47227916	-0.1176396	-1.1347756	0.52070558	0.1793031	-1.4793778	0.47183908	0.0083021521	-1.1231837	0.50441758	0.054288032	-1.3613753	0.87623848	-0.16131904	-1.3388945	0.87030979	0.20935956	-1.2547602	0.94596518	-0.10571516	-1.2523613	0.95115606	0.13549668	-1.4153025	1.0156721	0.019509635	-1.2030478	1.39701	-0.14065523	-1.2525648	1.4100576	0.18493966	-1.2897927	1.4604431	0.019571391	-1.3082434	1.0324418	-0.22057225	-1.4397979	1.1018076	0.25608353	-1.0529443	0.93239112	-0.19639106	-1.3784456	0.84086609	0.29823699
6	0.02	-1.4839112	0.036318886	-0.033234065	-0.9064301	0.081636073	0.11715053	-1.6336117	0.082975649	-0.055581913	-1.0570336	0.066592596	0.13438401	-1.6054023	0.096416278	0.038548175	-1.0438056	0.10643374	0.045126003	NaN	NaN	NaN	-1.1083432	0.031309157	0.07360071	-1.4787787	0.47233624	-0.11764539	-1.1287284	0.51921491	0.17939563	-1.4765788	0.47182163	0.0082514633	-1.1162756	0.50303178	0.054273744	-1.355728	0.87519803	-0.16105731	-1.3325029	0.86874763	0.20970388	-1.2486704	0.94457195	-0.10555305	-1.2459374	0.94969314	0.1357467	-1.4092987	1.0141748	0.019789187	-1.1969993	1.3958143	-0.14026485	-1.2468688	1.4086539	0.18533799	-1.2838281	1.4591212	0.01996414	-1.3011855	1.030773	-0.22025169	-1.4339069	1.1001939	0.25531755	-1.0449451	0.93324822	-0.19553595	-1.3743548	0.83946784	0.29868887
7	0.024	-1.4838639	0.036267376	-0.033298746	-0.8888603	0.085080069	0.11770465	-1.633177	0.083895415	-0.055688837	-1.0395252	0.066717113	0.13502983	-1.6043043	0.097316715	0.038157772	-1.0268747	0.10694401	0.045819575	NaN	NaN	NaN	-1.0900535	0.03046976	0.074046205	-1.4758522	0.47236441	-0.11763614	-1.1227168	0.51767893	0.17945567	-1.4735817	0.47179749	0.0082109446	-1.1094824	0.50158917	0.054214555	-1.3500622	0.87415213	-0.16076016	-1.3260341	0.86717211	0.2100671	-1.2425573	0.94320662	-0.10537209	-1.2394701	0.94824417	0.13598575	-1.4033165	1.0125724	0.020132365	-1.1909042	1.3946133	-0.13986681	-1.2411157	1.4072382	0.18574499	-1.2778756	1.457789	0.020265591	-1.2941331	1.0291398	-0.21996682	-1.4280152	1.0986076	0.25459539	-1.0370064	0.9340245	-0.19467899	-1.3703468	0.83805448	0.29914611
8	0.028	-1.4837967	0.036215375	-0.033374282	-0.87181301	0.088769587	0.11810621	-1.6327088	0.08485438	-0.055855169	-1.0224341	0.067055596	0.13568279	-1.6029512	0.098301243	0.03760677	-1.0104454	0.10760742	0.046489886	NaN	NaN	NaN	-1.0714453	0.029352529	0.075455244	-1.4728032	0.47236774	-0.11761883	-1.1167158	0.51613369	0.17948778	-1.4704046	0.47177126	0.0081699521	-1.1027875	0.50010999	0.054131826	-1.3443777	0.87309922	-0.16039475	-1.3195695	0.86557366	0.21042667	-1.2364196	0.94186024	-0.10518701	-1.2329594	0.94681288	0.13620876	-1.3972478	1.0109613	0.020564201	-1.184792	1.3934105	-0.13944913	-1.2352952	1.4058151	0.18616647	-1.2718984	1.4564565	0.020584453	-1.2870887	1.0275447	-0.21972003	-1.4221866	1.0971288	0.25398677	-1.0291282	0.93471761	-0.19382704	-1.3663414	0.83665116	0.29958949
9	0.032	-1.4837127	0.036170859	-0.033459301	-0.85532778	0.092713044	0.11845378	-1.6322066	0.085851814	-0.056067865	-1.005686	0.067617191	0.13633833	-1.6016359	0.09932486	0.037035602	-0.99457955	0.10838694	0.047104443	NaN	NaN	NaN	-1.052872	0.02817493	0.077404314	-1.4695539	0.47234156	-0.11761161	-1.1106483	0.5145989	0.17949448	-1.4670494	0.47173576	0.0081268922	-1.0961594	0.4986107	0.054034952	-1.3386642	0.87203779	-0.15995472	-1.3130735	0.86396026	0.21077646	-1.2302665	0.94052957	-0.10501325	-1.2263765	0.94540594	0.1364139	-1.3910547	1.0094017	0.02109721	-1.1786739	1.3922104	-0.13900621	-1.2294105	1.4043982	0.18660647	-1.2658865	1.4551297	0.020939668	-1.2800421	1.0259753	-0.21944399	-1.4163985	1.0957449	0.25348078	-1.0213089	0.93533084	-0.19298229	-1.3620984	0.83528447	0.29999305
10	0.036	-1.4836192	0.036140944	-0.033550404	-0.83945266	0.096870353	0.11882493	-1.631666	0.086891157	-0.05631572	-0.98905536	0.06849824	0.13704134	-1.60042	0.10037513	0.03648776	-0.97929991	0.1092532	0.047642395	NaN	NaN	NaN	-1.0349397	0.027240685	0.079095672	-1.4660393	0.47227945	-0.11762942	-1.1043931	0.5130825	0.17949783	-1.4635205	0.47166172	0.0081039944	-1.0895812	0.49710229	0.05392473	-1.33291	0.87096945	-0.15945902	-1.3064746	0.86234777	0.21111608	-1.2241055	0.93921913	-0.10486501	-1.2197007	0.94402986	0.13660635	-1.3847665	1.0078791	0.021750475	-1.1725332	1.3910201	-0.13854296	-1.2234849	1.4029981	0.1870592	-1.2598404	1.453814	0.021322369	-1.2729879	1.0244235	-0.21909243	-1.4106019	1.0944058	0.25303522	-1.0135459	0.93587315	-0.19214526	-1.357456	0.83395508	0.30034716
11	0.04	-1.4835229	0.036124548	-0.033644509	-0.82419897	0.10115032	0.11919986	-1.6310843	0.087978643	-0.056593038	-0.97231502	0.069807511	0.13785318	-1.5992875	0.10142551	0.035970272	-0.96454863	0.1101929	0.048107736	NaN	NaN	NaN	-1.0178945	0.026633466	0.080230873	-1.4622612	0.47217799	-0.11766889	-1.0978951	0.51158234	0.17952716	-1.4598183	0.47151889	0.0081246278	-1.0830538	0.4955954	0.053803374	-1.3271017	0.86990108	-0.15894807	-1.2997377	0.86074906	0.21144433	-1.2179347	0.93793373	-0.1047494	-1.212953	0.94268758	0.13679203	-1.3784266	1.0063602	0.022537299	-1.1663541	1.3898441	-0.13806821	-1.217543	1.4016169	0.18751793	-1.2537587	1.4525113	0.021729455	-1.2659315	1.0228936	-0.21868447	-1.4047638	1.0930778	0.25262263	-1.0058368	0.93634875	-0.19131902	-1.3524875	0.83264699	0.30066487
12	0.044	-1.4834248	0.036114298	-0.033742413	-0.80955695	0.10543637	0.119506	-1.6304568	0.089119897	-0.056898076	-0.95562454	0.071453069	0.13873614	-1.5982388	0.10245548	0.035491502	-0.950248	0.11119721	0.048515467	NaN	NaN	NaN	-1.0016826	0.026277499	0.080949711	-1.4582619	0.47203399	-0.11770833	-1.0912403	0.51009059	0.17959751	-1.4559368	0.47130494	0.0081816038	-1.0765778	0.49409939	0.053683014	-1.3212308	0.86883584	-0.15845142	-1.2928704	0.859169	0.21176102	-1.2117461	0.93667967	-0.10466064	-1.2061766	0.94137914	0.13697308	-1.372059	1.004839	0.023426858	-1.1601399	1.3886824	-0.1375883	-1.2115815	1.4002525	0.18798406	-1.2476372	1.4512244	0.022167823	-1.258882	1.0213943	-0.21825859	-1.3988708	1.0917526	0.25223788	-0.99818452	0.93675203	-0.19050456	-1.347404	0.83135035	0.30096331
13	0.048	-1.4833195	0.036103185	-0.033847985	-0.79552121	0.1096107	0.11969075	-1.6297744	0.090318649	-0.057235573	-0.93959193	0.073097886	0.13952572	-1.597286	0.1034778	0.035056048	-0.9364061	0.11223935	0.04886675	NaN	NaN	NaN	-0.98621276	0.026091964	0.081436149	-1.4540831	0.47184515	-0.11772916	-1.0845198	0.50862794	0.17972484	-1.4518573	0.47104165	0.0082395794	-1.0701333	0.49262145	0.053582978	-1.3152987	0.86777055	-0.15796655	-1.2858888	0.85760721	0.2120694	-1.2055264	0.93546046	-0.10458539	-1.1993938	0.94010198	0.13714742	-1.365665	1.0033327	0.024344832	-1.1539019	1.3875355	-0.13710117	-1.2055786	1.3989028	0.18846216	-1.2414763	1.4499589	0.022640953	-1.2518447	1.0199365	-0.2178272	-1.3929234	1.0904361	0.2518891	-0.9905963	0.9370741	-0.18969469	-1.3423604	0.83005843	0.30124747
14	0.052	-1.4831997	0.036089602	-0.033963644	-0.78209108	0.11356037	0.11974749	-1.6290295	0.091577412	-0.057612433	-0.92473667	0.074440774	0.14006983	-1.5964111	0.10451896	0.034652637	-0.92309867	0.1132773	0.049143173	NaN	NaN	NaN	-0.97138759	0.026026767	0.081822883	-1.4497449	0.47161602	-0.11773761	-1.0777079	0.50724743	0.1799313	-1.4475331	0.47075286	0.0082647732	-1.0636786	0.49117355	0.053516974	-1.3093085	0.86670259	-0.15747681	-1.2787905	0.85606732	0.21238035	-1.1992644	0.93427176	-0.10451817	-1.1925948	0.93885526	0.13731248	-1.3592315	1.0018554	0.025225086	-1.1476428	1.386408	-0.13659891	-1.1995238	1.397569	0.18895452	-1.2352932	1.4487116	0.023121738	-1.2448245	1.018535	-0.2173888	-1.3869267	1.0891347	0.2515846	-0.98307889	0.93731543	-0.18887831	-1.3373572	0.82876298	0.30151644
15	0.056	-1.4830599	0.036076792	-0.034087138	-0.76926204	0.11717717	0.11970064	-1.6282236	0.092901816	-0.058028635	-0.91107884	0.075435939	0.14033894	-1.595564	0.10559451	0.034257126	-0.91037807	0.11427573	0.04932487	NaN	NaN	NaN	-0.95707317	0.026066023	0.082186628	-1.4452441	0.47135611	-0.11775049	-1.0707254	0.50598036	0.18022355	-1.4429043	0.47045613	0.0082449215	-1.0571673	0.48977914	0.053485159	-1.3032536	0.86563376	-0.15697196	-1.2715678	0.85455851	0.21271079	-1.192964	0.93310936	-0.10446521	-1.1857603	0.93764322	0.13746895	-1.3527371	1.0004068	0.02605664	-1.1413569	1.385303	-0.13607796	-1.1934197	1.396256	0.18946051	-1.2291312	1.447449	0.023530365	-1.2378258	1.017195	-0.21694432	-1.3808813	1.0878509	0.25132615	-0.97563359	0.93748841	-0.18805232	-1.3322916	0.82746764	0.3017738
